<svg id="Camada_1" data-name="Camada 1" xmlns="http://www.w3.org/2000/svg" viewBox="0 0 1453.13 1493.95">
  
  <path fill="#051C2C" class="cls-1" d="M519.22,843.75l-45.1,15.11c53.94,77.43,143.68,128.2,245.06,128.2,4.38,0,8.76-.08,13.07-.3l-14.13-45.02c-80.76-.3-152.75-38.68-198.9-97.98ZM719.19,390.03c-164.61,0-298.55,133.94-298.55,298.55,0,29.46,4.31,58.02,12.31,84.91l39.13-29.31c-4-17.9-6.12-36.49-6.12-55.6,0-139.6,113.62-253.22,253.22-253.22s253.15,113.62,253.15,253.22c0,99.49-57.71,185.84-141.42,227.16v49.63c109.39-44.27,186.74-151.69,186.74-276.79,0-164.61-133.86-298.55-298.47-298.55Z"></path>
  <polygon fill="#23D8D3" class="cls-2" points="800.7 535.53 800.7 1103.92 763 983.8 749.25 939.91 691.16 754.61 501.54 817.84 457.65 832.42 362.47 864.14 443.6 803.33 481.22 775.08 800.7 535.53"></polygon>
</svg>